/* XPM */
static char *f00ac5f5aefe4d60be1ef4300e6d4339kBWkmUkXpgXPQIzT[] = {
/* columns rows colors chars-per-pixel */
"65 65 34 1 ",
"  c None",
". c #232929",
"X c #232A2A",
"o c #242929",
"O c #242A2A",
"+ c #252A2A",
"@ c #242B2B",
"# c #252B2B",
"$ c #252C2C",
"% c #272D2D",
"& c #272E2F",
"* c #262F2F",
"= c #282D2F",
"- c #292F30",
"; c #2A3032",
": c #2B3233",
"> c #2C3334",
", c #2C3435",
"< c #2E3536",
"1 c #2F3637",
"2 c #303638",
"3 c #303839",
"4 c #31393A",
"5 c #333A3C",
"6 c #353D3F",
"7 c #373F40",
"8 c #363E41",
"9 c #374041",
"0 c #374042",
"q c #384041",
"w c #394041",
"e c #384042",
"r c #394042",
"t c #394043",
/* pixels */
"                                                                 ",
"                               ee                                ",
"                              eeee                               ",
"                             eeeeee                              ",
"                            eeeeeeee                             ",
"                           eeeeeeeeee                            ",
"                          eeeeeeeeeeee                           ",
"                          eeeeeeeeeeeee                          ",
"                         eeeeeeeeeeeeeee                         ",
"                        eeeeeeeeeeeeeeeee                        ",
"                       eeeeeeeeeeeeeeeeeee                       ",
"                      eeeeeeeeeeeeeeeeeeeee                      ",
"                     eeeeeeeeeeeeeeeeeeeeeee                     ",
"                    eeeeeeeeeeeeeeeeeeeeeeeee                    ",
"                                                                 ",
"                                                                 ",
"                                                                 ",
"                  1eeeeeeeeeeeeeeeeeeeeeeeeeee1                  ",
"                 XO6eeeeeeeeeeeeeeeeeeeeeeeee6OO                 ",
"                 OO-eeeeeeeeeeeeeeeeeeeeeeeee%OO                 ",
"                XOOO1eeeeeeeeeeeeeeeeeeeeeee1OOOO                ",
"                OOOOO6eeeeeeeeeeeeeeeeeeeee6OOOOO                ",
"               XOOOOO-eeeeeeeeeeeeeeeeeeeee%OOOOOX               ",
"               OOOOOOO1eeeeeeeeeeeeeeeeeee1OOOOOOO               ",
"              XOOOOOOOO6eeeeeeeeeeeeeeeee6OOOOOOOOX              ",
"              OOOOOOOOO-eeeeeeeeeeeeeeeee%OOOOOOOOO              ",
"             XOOOOOOOOOO1eeeeeeeeeeeeeee1OOOOOOOOOOX             ",
"             OOOOOOOOOOOO6eeeeeeeeeeeee6OOOOOOOOOOOO             ",
"            XOOOOOOOOOOOO-eeeeeeeeeeeee-OOOOOOOOOOOOX            ",
"            OOOOOOOOOOOOOO1eeeeeeeeeee2OOOOOOOOOOOOOO            ",
"           XOOOOOOOOOOOOOOO8eeeeeeeee6%OOOOOOOOOOOOOOX           ",
"           OOOOOOOOOOOOOOOO;eeeeeeeee-OOOOOOOOOOOOOOOO           ",
"          XOOOOOOOOOOOOOOOOO3eeeeeee3OOOOOOOOOOOOOOOOOX          ",
"          OOOOOOOOOOOOOOOOOOO8eeeee6%OOOOOOOOOOOOOOOOOOO         ",
"         XOOOOOOOOOOOOOOOOOOO;eeeee;OOOOOOOOOOOOOOOOOOOO         ",
"         OOOOOOOOOOOOOOOOOOOOO3eee3OOOOOOOOOOOOOOOOOOOOOO        ",
"        XOOOOOOOOOOOOOOOOOOOOOO8e6%OOOOOOOOOOOOOOOOOOOOOO        ",
"        OOOOOOOOOOOOOOOOOOOOOOO>e;OOOOOOOOOOOOOOOOOOOOOOOO       ",
"       XOOOOOOOOOOOOOOOOOOOOOOOO1OOOOOOOOOOOOOOOOOOOOOOOOO       ",
"       OOOOOOOOOOOOOOOOOOOOOOOO   XXOOOOOOOOOOOOOOOOOOOOOOO      ",
"      XOOOOOOOOOOOOOOOOOOOOO         OOOOOOOOOOOOOOOOOOOOOO      ",
"      OOOOOOOOOOOOOOOOOOOO             XXOOOOOOOOOOOOOOOOOOO     ",
"     XOOOOOOOOOOOOOOOOO                   OOOOOOOOOOOOOOOOOO     ",
"     OOOOOOOOOOOOOOOO          e%8          XXOOOOOOOOOOOOOOO    ",
"    XOOOOOOOOOOOOO           0e1O>eee          OOOOOOOOOOOOOO    ",
"   XOOOOOOOOOOOO          eeee6OOO5eeee           XOOOOOOOOOOO   ",
"   OOOOOOOOOO          e0eeeee%OOO%8eeeeee          XOOOOOOOOO   ",
"  XOOOOOOOO          eeeeeeee1OOOOO>eeeeeeee           XOOOOOOO  ",
"  OOOOOX          eeeeeeeeee6OOOOOOO5eeeeeeeeee          XOOOOO  ",
" XOOO           0eeeeeeeeeee%OOOOOOO%8eeeeeeeeee0e          XOOO ",
" OX          eeeeeeeeeeeeee1OOOOOOOOO>eeeeeeeeeeeeee          XX ",
"          e0eeeeeeeeeeeeee6OOOOOOOOOOO5eeeeeeeeeeeeeee0          ",
"        0eeeeeeeeeeeeeeeee%OOOOOOOOOOO%8eeeeeeeeeeeeeeeeee       ",
"     eeeeeeeeeeeeeeeeeeee1OOOOOOOOOOOOO>eeeeeeeeeeeeeeeeeeee     ",
"  e0eeeeeeeeeeeeeeeeeeee6OOOOOOOOOOOOOOO5eeeeeeeeeeeeeeeeeeeeee  ",
" eeeeeeeeeeeeeeeeeeeeeee%OOOOOOOOOOOOOOO%8eeeeeeeeeeeeeeeeeeeeee ",
"   0eeeeeeeeeeeeeeeeeee1OOOOOOOOOOOOOOOOO>eeeeeeeeeeeeeeeeeeee   ",
"     eeeeeeeeeeeeeeeee6OOOOOOOOOOOOOOOOOOO5eeeeeeeeeeeeeeeee     ",
"       eeeeeeeeeeeeeee%OOOOOOOOOOOOOOOOOOO%8eeeeeeeeeeeeee       ",
"        eeeeeeeeeeeee1OOOOOOOOOOOOOOOOOOOOO>eeeeeeeeeee0e        ",
"          eeeeeeeeee6OOOOOOOOOOOOOOOOOOOOOOO5eeeeeeeeee          ",
"            eeeeeeee%OOOOOOOOOOOOOOOOOOOOOOO%8eeeeee0            ",
"              eeeee1OOOOOOOOOOOOOOOOOOOOOOOOO>eeeee              ",
"                ee6OOOOOOOOOOOOOOOOOOOOOOOOOOO5ee                ",
"                  =OOOOOOOOOOOOOOOOOOOOOOOOOOO%                  "
};
