/* XPM */
static char *result[] = {
/* columns rows colors chars-per-pixel */
"24 24 66 1 ",
"  c #242A2A",
". c #252B2B",
"X c #272D2D",
"o c #292F30",
"O c #2B3233",
"+ c #2D3333",
"@ c #2C3334",
"# c #2E3536",
"$ c #303636",
"% c #303839",
"& c #31393A",
"* c #333A3C",
"= c #343B3E",
"- c #373C3C",
"; c #353D3F",
": c #393F3F",
"> c #363E41",
", c #384042",
"< c #40474A",
"1 c #494E4E",
"2 c #4A4E4E",
"3 c #484F51",
"4 c #595F60",
"5 c #5D6060",
"6 c #666969",
"7 c #696E6F",
"8 c #6F7272",
"9 c #707272",
"0 c #737677",
"q c #797D7E",
"w c #828484",
"e c #828585",
"r c #818586",
"t c #888C8C",
"y c #8A8D8D",
"u c #8A8D8E",
"i c #8C8D8D",
"p c #909393",
"a c #959797",
"s c #9A9C9C",
"d c #9D9D9D",
"f c gray62",
"g c #9FA0A0",
"h c #A0A0A0",
"j c gray64",
"k c #A2A4A4",
"l c #A4A4A4",
"z c #A5A5A5",
"x c #A8A9A9",
"c c #A9AAAB",
"v c #ABABAC",
"b c #ABACAC",
"n c #ACACAC",
"m c #AEAEAE",
"M c #B1B1B1",
"N c #B1B2B2",
"B c #B2B2B2",
"V c gray70",
"C c gray71",
"Z c #B7B7B7",
"A c gray72",
"S c #B9B9B9",
"D c gray73",
"F c #BBBBBB",
"G c #BCBCBC",
"H c None",
/* pixels */
"HHHHHHHHHFGykFGHHHHHHHHH",
"HHHHHHHGFFv,3vFFGHHHHHHH",
"HHHHHHFFFv3,,3VFFFHHHHHH",
"HHHHHDFFFpqqqqtFFFDHHHHH",
"HHHHHFFFxo,,,,ONFFFHHHHH",
"HHHHSFFF8 *,,* 9FFFZHHHH",
"HHHHSFFF- o,,X +FFFFHHHH",
"HHHHFFFw   &%   iFFFHHHH",
"HHHHFFF1   $:   2FFFHHHH",
"HHHHAFx  -evce-  aFZHHHH",
"HHHHnF51as4##7ke-6FmHHHH",
"HHHHHFas4,;X.>,4ygFHHHHH",
"HHHHHz7,,,O  @,,,7lHHHHH",
"HHHHHHBu3;    =<rMHHHHHH",
"HHHHHHHhb088880VfHHHHHHH",
"HHHHHHHHHjMFFCdHHHHHHHHH",
"HHHHHHHHHHHHHHHHHHHHHHHH",
"HHHHHHHHHHHHHHHHHHHHHHHH",
"HHHHHHHHHHHHHHHHHHHHHHHH",
"HHHHHHHHHHHHHHHHHHHHHHHH",
"HHHHHHHHHHHHHHHHHHHHHHHH",
"HHHHHHHHHHHHHHHHHHHHHHHH",
"HHHHHHHHHHHHHHHHHHHHHHHH",
"HHHHHHHHHHHHHHHHHHHHHHHH"
};
