/* XPM */
static char *_540cd8dc361473492c5c7fea15e627dkvOiCI6xbcqjFTKU[] = {
/* columns rows colors chars-per-pixel */
"33 33 24 1 ",
"  c None",
". c #232929",
"X c #232A2A",
"o c #242929",
"O c #242A2A",
"+ c #252A2A",
"@ c #242B2B",
"# c #272D2D",
"$ c #2A3033",
"% c #2B3233",
"& c #2C3233",
"* c #2C3334",
"= c #2E3536",
"- c #303739",
"; c #303839",
": c #31393B",
"> c #333A3C",
", c #353D3F",
"< c #363E41",
"1 c #374042",
"2 c #384041",
"3 c #384042",
"4 c #394042",
"5 c #394043",
/* pixels */
"                1                ",
"               333               ",
"              33333              ",
"             3333333             ",
"            333333333            ",
"           33333333333           ",
"          1333333333333          ",
"                                 ",
"         $3333333333333-         ",
"         O>33333333333,#O        ",
"        XO#<3333333333$OO        ",
"        OOO*333333333;OOOO       ",
"       XOOOO>3333333,#OOOO       ",
"       OOOOO#<333333$OOOOOO      ",
"      XOOOOOO*33333;OOOOOOO      ",
"      OOOOOOOO>333,#OOOOOOOO     ",
"     XOOOOOOOO#<33$OOOOOOOOO     ",
"     OOOOOOOOOO*3;OOOOOOOOOOO    ",
"    XOOOOOOOOOOO;#OOOOOOOOOOO    ",
"    OOOOOOOOOOOX  XOOOOOOOOOOO   ",
"   XOOOOOOOOO       XOOOOOOOOO   ",
"   OOOOOOOO     &      XOOOOOOO  ",
"  XOOOOO     31,O*33     XOOOOO  ",
"  OOOO     3333#OO>3333     OOOO ",
" XO     113333=OOO#<33333     XX ",
"      1333333,OOOOO*33333331     ",
"   3333333333#OOOOOO>3333333333  ",
" 33333333333=OOOOOOO#<3333333333 ",
"   33333333,OOOOOOOOO*333333313  ",
"     333333#OOOOOOOOOO>333333    ",
"       333=OOOOOOOOOOO#<331      ",
"        3,OOOOOOOOOOOOO*3        ",
"                                 "
};
